# xmcd CD database file
#
# Track frame offsets:
#	210
#	23280
#	41435
#	63861
#	81017
#	103438
#	118291
#	138548
#	158987
#	179232
#
# Disc length: 2626 seconds
#
# Revision: 0
# Processed by: cddbd v1.5.1PL0 Copyright (c) Steve Scherf et al.
# Submitted via: CDex 1.51
#
DISCID=880a400a
DTITLE=Madredeus - Faluas Do Tejo
DYEAR=2005
DGENRE=World Music
TTITLE0=Lisboa Rainha Do Mar
TTITLE1=Fado das Duvidas
TTITLE2=Adoro Lisboa
TTITLE3=Nevoas da Madrugada
TTITLE4=Faluas Do Tejo
TTITLE5=No Meu Jardim (Sementes A Terra)
TTITLE6=O Cais Distante
TTITLE7=Na Estrada de Santiago
TTITLE8=La de Fora
TTITLE9=O Canto da Saudade (Pam)
EXTD=YEAR: 2005
EXTT0=
EXTT1=
EXTT2=
EXTT3=
EXTT4=
EXTT5=
EXTT6=
EXTT7=
EXTT8=
EXTT9=
PLAYORDER=
